<svg xmlns="http://www.w3.org/2000/svg" width="20" height="30" viewBox="0 0 20 30"><path d="M9.927,39.133c-2.838,0-5.127,3.434-5.127,7.692s2.289,7.692,5.127,7.692,5.127-3.434,5.127-7.692S12.765,39.133,9.927,39.133Zm0,12.692c-1.834,0-3.333-2.243-3.333-5s1.495-5,3.333-5,3.333,2.243,3.333,5-1.5,5-3.333,5Zm6.532-13.007c0,1-.535,1.794-1.2,1.794s-1.2-.8-1.2-1.794.535-1.794,1.2-1.794S16.459,37.828,16.459,38.819Zm3.4,1.821a11.676,11.676,0,0,0-1.615-6.286,5.075,5.075,0,0,0-4.19-2.423,80.743,80.743,0,0,0-8.25,0,5.062,5.062,0,0,0-4.19,2.417A11.715,11.715,0,0,0,0,40.633C-.1,43.11-.1,50.534,0,53.01A11.676,11.676,0,0,0,1.61,59.3,5.08,5.08,0,0,0,5.8,61.72a80.743,80.743,0,0,0,8.25,0A5.043,5.043,0,0,0,18.24,59.3a11.755,11.755,0,0,0,1.615-6.286C19.948,50.534,19.948,43.116,19.855,40.64ZM17.722,55.668a4.607,4.607,0,0,1-1.9,2.852c-1.316.783-4.439.6-5.894.6s-4.582.174-5.894-.6a4.6,4.6,0,0,1-1.9-2.852c-.522-1.975-.4-6.661-.4-8.843s-.116-6.875.4-8.843a4.607,4.607,0,0,1,1.9-2.852c1.316-.783,4.439-.6,5.894-.6s4.582-.174,5.894.6a4.6,4.6,0,0,1,1.9,2.852c.522,1.975.4,6.661.4,8.843S18.244,53.7,17.722,55.668Z" transform="translate(0.075 -31.825)"/></svg>