<svg xmlns="http://www.w3.org/2000/svg" width="20" height="30" viewBox="0 0 20 30"><path d="M17.944,55.559c.013.328.013.656.013.984,0,10.008-4.124,21.539-11.662,21.539-2.322,0-4.48-1.242-6.294-3.4a4.645,4.645,0,0,0,.99.094c1.916,0,3.68-1.2,5.089-3.234-1.8-.07-3.312-2.25-3.833-5.25a2.876,2.876,0,0,0,.774.117A2.51,2.51,0,0,0,4.1,66.152c-1.878-.7-3.287-3.75-3.287-7.43v-.094a2.9,2.9,0,0,0,1.853.961,10.328,10.328,0,0,1-1.827-6.3,12.716,12.716,0,0,1,.558-3.82c2.018,4.594,5.051,7.594,8.452,7.922a15.561,15.561,0,0,1-.1-1.734c0-4.172,1.827-7.57,4.1-7.57,1.18,0,2.246.914,2.995,2.391a6.549,6.549,0,0,0,2.6-1.828,8.424,8.424,0,0,1-1.8,4.172A5.619,5.619,0,0,0,20,51.645a15.95,15.95,0,0,1-2.056,3.914Z" transform="translate(0 -48.082)"/></svg>